<svg xmlns="http://www.w3.org/2000/svg" xmlns:xlink="http://www.w3.org/1999/xlink" width="104" height="104" viewBox="0 0 104 104">
  <defs>
    <clipPath id="clip-path">
      <circle id="eric-han-WJ6fmN1D-h0-unsplash" cx="52" cy="52" r="52" transform="translate(6645 12335)" fill="#a9a9a9"/>
    </clipPath>
    <clipPath id="clip-path-2">
      <rect id="사각형_195" data-name="사각형 195" width="104.098" height="143.75" fill="none"/>
    </clipPath>
  </defs>
  <g id="그룹_369" data-name="그룹 369" transform="translate(-6543 -12361)">
    <circle id="eric-han-WJ6fmN1D-h0-unsplash-2" data-name="eric-han-WJ6fmN1D-h0-unsplash" cx="52" cy="52" r="52" transform="translate(6543 12361)" fill="none"/>
    <g id="마스크_그룹_4" data-name="마스크 그룹 4" transform="translate(-102 26)" clip-path="url(#clip-path)">
      <g id="그룹_367" data-name="그룹 367" transform="translate(6660.657 12357.249)">
        <g id="그룹_366" data-name="그룹 366" clip-path="url(#clip-path-2)">
          <path id="패스_134" data-name="패스 134" d="M22.79,13.941S13.857,3.005,8.1,4.174c0,0-4.424,4.007,2.337,18.532l-1.085,2.5-2.337.835,2.922.835L7.263,29.635l-1,1.085,1.252,1.169L6.261,34.226l-2,1.085H7.012l-2.254,2.17-.5,2.087H6.678L3.757,42.24l-2.17,2.922a11.222,11.222,0,0,0,2.922-.5c.417-.334-2.17,2.421-2.17,2.421L0,48.585s.918,1.5,1.336,1.336S.584,51.757.584,51.757l2.421-1.5L.751,53.009l-.167,2.5,5.76-1.085L1,59.437,0,62.693l1.336-.334-.25,2.254-.334,1.5,1.92.417L1.586,68.87H4.424l-2.337,2.5a9.463,9.463,0,0,0,2.671,0c.334-.25-2.254,2.254-2.254,2.254l3.256-.584-1.67,2.5h2.17L3.59,77.8l2.337-.5L4.675,78.887l1.336,1.67,2.671,3.089L6.094,88.154,4.842,91.493l-1,3.423,1.586-.584L4.09,97.336l1.753.918-.835,1.5,1.419-.5-1.419,2.087,1.169.835.751,2.087L7.68,105.6l.584,2.183,1.753,1.991,1.377,2.671,2.212,2.588,4.174,1.169,2,1.085,2.254,1.753s.417,3.005.167,3.089.584,5.176.584,5.176a13.955,13.955,0,0,0,1.252,2.922c.334.167,2.5,1.169,2.5,1.169l-.668,7.764,1.419,1.5,2.337,1.419,1.5,1.669,1.92-.751,1.5.083s4.424-.751,4.174-1,1.169-1.419,1.169-1.419l3.256.918,2.5,1s3.339-1,3.757-1,2.254,0,2.254-.417.668-3.923.668-3.923v-2.421l-.417-3.673.417-2.17s1.252,1.419,1.5,1.419a27.291,27.291,0,0,0,2.671-2.755s1-2.087,1.419-2.671a32.059,32.059,0,0,0,1.5-3.923l.751-1.92,4.174-3.005,4.508-3.005,2.838-2.922,5.593-9.6.417-7.513,6.762,1.085,12.689-1.085s3.256.751,3.506.751,3.423.835,3.423.835l-1-15.444-13.523,1.67L85.4,79.555l-5.426.584-3.924-.334-2.087-.334-1.837-1.586L70.206,75.3l4.424.835-2.421-1.252,2.922.668-2.254-2.254.918-.251-2.254-2.5,2.337.083-1.5-1.085,2,.167-1.085-1.336,2,.167-1.419-1,1.336-1.419.334-.584V64.7l-1.419-3.59,1.419-1.085L72.961,58.1l3.339.083L73.8,55.6l.417-1.169-2.337-2.5,4.341.584-5.343-3.172,3.423.417-1.419-1.67,2.838.835-2.838-2.171,2.838.751-6.261-3.089-2.755-9.1-3.089-6.177-2.254-5.176L60.1,20.619l1.753-8.014,1.336-6.344,1-2.671L64.946,0,53.093,10.268,47,13.357l-4.007.5-3.757.5-5.343.417-8.1-.083Z" fill="#fff"/>
        </g>
      </g>
    </g>
  </g>
</svg>
