<svg xmlns="http://www.w3.org/2000/svg" xmlns:xlink="http://www.w3.org/1999/xlink" width="40" height="43" viewBox="0 0 40 43">
  <defs>
    <clipPath id="clip-path">
      <path id="패스_84" data-name="패스 84" d="M18.961,0a18.961,18.961,0,1,0,18.961,18.96A18.961,18.961,0,0,0,18.961,0Z" transform="translate(0 -0.001)" fill="#0080ff"/>
    </clipPath>
  </defs>
  <g id="그룹_64" data-name="그룹 64" transform="translate(-720 -337)">
    <g id="타원_19" data-name="타원 19" transform="translate(720 337)" fill="none" stroke="#0080ff" stroke-width="2">
      <circle cx="20" cy="20" r="20" stroke="none"/>
      <circle cx="20" cy="20" r="19" fill="none"/>
    </g>
    <g id="프로필" transform="translate(-235.911 344.074)">
      <rect id="사각형_76" data-name="사각형 76" width="14" height="1" transform="translate(968.911 34.926)" fill="#0080ff" opacity="0"/>
      <g id="그룹_63" data-name="그룹 63" transform="translate(955.911 -5.566)">
        <g id="그룹_62" data-name="그룹 62" transform="translate(0 0)" clip-path="url(#clip-path)">
          <path id="패스_83" data-name="패스 83" d="M39.209,18.055v-.83l-3.734,1.956-1.423.059-.948.593-1.245-.3H29.488l-1.127-.415-1.719-.415-1.456-1.245-1.745-.741-.178,1.1.089,1.393s.889,1.3.622,1.393-.177,2.579-.177,2.579l-.682.949.178.207-.5.652.326.385a1.868,1.868,0,0,0-.623,1.541l-.652.267-1.334.3-.83.267-1.571.682-1.512,1.334L15.32,31.156l-1.126,1.6-1.008,1.719-.711,2.015-1.3,2.49.3,4.683.3,1.423.771,1.9.356,1.126-.059,1.126.482.91v.1h-.956s-1.3.83-1.186,1.838c0,0-.059,3.082,1.364,3.557a55.376,55.376,0,0,0,17.784,2.075l2.727-.533v-.356s1.6.119,2.075-.593c0,0,.533-.415-.415-1.3,0,0-.593-1.838-1.541-2.015l-.593-.474.059-1.9.474-1.186.533-1.9v-.771l.178-.474,1.126-1.363.328-2.134.562-1.838-.356-1.9,1.067-2.134V31.1l1.6-1.3.593-1.067V26.887l.474-1.3-.533-.948-.178-.652-.652-.474-.178-1.719,1.067-2.253ZM34.666,56.229l.029.15-.029.017Zm-1.127.357h.088l-.03.134h-.119Zm-.495,0,.015.045-.163.089-.054-.134Z" transform="translate(-7.053 -10.565)" fill="#0080ff"/>
        </g>
      </g>
    </g>
  </g>
</svg>
