<svg xmlns="http://www.w3.org/2000/svg" xmlns:xlink="http://www.w3.org/1999/xlink" width="138.471" height="26" viewBox="0 0 138.471 26">
  <defs>
    <clipPath id="clip-path">
      <rect id="사각형_38" data-name="사각형 38" width="138.472" height="26" fill="none"/>
    </clipPath>
    <linearGradient id="linear-gradient" x1="0.111" y1="0.106" x2="0.889" y2="0.947" gradientUnits="objectBoundingBox">
      <stop offset="0" stop-color="#0080ff"/>
      <stop offset="1" stop-color="#d600ff"/>
    </linearGradient>
  </defs>
  <g id="그룹_24" data-name="그룹 24" transform="translate(0 0)">
    <g id="그룹_3" data-name="그룹 3" transform="translate(0 0)">
      <g id="그룹_2" data-name="그룹 2" clip-path="url(#clip-path)">
        <g id="그룹_9" data-name="그룹 9" transform="translate(31.598 5.814)">
          <path id="패스_1" data-name="패스 1" d="M485.219,39.021H472.986a1.019,1.019,0,0,0-1.019,1.019v1.388a1.019,1.019,0,0,0,.769.987h4.631V52.6a1.018,1.018,0,0,0,.987.769h1.389a1.019,1.019,0,0,0,1.019-1.019V42.415h4.708a1.019,1.019,0,0,0,.769-.987V40.04a1.019,1.019,0,0,0-1.019-1.019" transform="translate(-379.364 -39.021)" fill="#fff"/>
          <path id="패스_2" data-name="패스 2" d="M314.837,50.191h-6.055V40.317a1.023,1.023,0,0,0-1.042-1h-1.335a1.011,1.011,0,0,0-1.017.976c0,.009,0,.018,0,.027s0,.018,0,.027v12.21c0,.009,0,.018,0,.027s0,.018,0,.027a1.011,1.011,0,0,0,1.017.976h8.47a1,1,0,0,0,1-1V51.194a1.023,1.023,0,0,0-1.042-1" transform="translate(-256.62 -39.237)" fill="#fff"/>
          <path id="패스_3" data-name="패스 3" d="M134.359,40.574l0,0a1.024,1.024,0,0,0-1.041-.969H121.123a1.028,1.028,0,0,0-1.035.89.9.9,0,0,0,0,.226v6.51a.9.9,0,0,0,0,.33,1.031,1.031,0,0,0,1.027.838h9.85v2.006h-9.889a1,1,0,0,0-.988.831c0,.025-.008.051-.011.076l-.006-.007V52.8l.009-.01s0,.007,0,.01a1.009,1.009,0,0,0,1,1h12.268a1,1,0,0,0,1.006-1V46.01a1,1,0,0,0-1-1h-9.873V43h9.829a1.023,1.023,0,0,0,1.042-1v-.005l.006.005ZM121.8,52.1h0" transform="translate(-120.072 -39.453)" fill="#fff"/>
          <path id="패스_4" data-name="패스 4" d="M259.158,39.021H248.975a1.032,1.032,0,0,0-1.04.995c0,.009,0,.018,0,.027s0,.018,0,.027V52.3c0,.009,0,.018,0,.027s0,.018,0,.027a1.023,1.023,0,0,0,1.04.976h10.183a1.023,1.023,0,0,0,1.042-1V40.043a1.032,1.032,0,0,0-1.042-1.022m-2.352,10.915h-5.477V42.415h5.477Z" transform="translate(-214.286 -39.021)" fill="#fff"/>
          <path id="패스_5" data-name="패스 5" d="M198.144,42.415a1.023,1.023,0,0,0,1.042-1V40.024a1.023,1.023,0,0,0-1.042-1H185.957a1.023,1.023,0,0,0-1.042,1V52.289a1.023,1.023,0,0,0,1.042,1h12.188a1.023,1.023,0,0,0,1.041-1V50.9a1.023,1.023,0,0,0-1.041-1h-9.835V47.815h9.835a1.023,1.023,0,0,0,1.041-1V45.424a1.023,1.023,0,0,0-1.041-1h-9.835V42.415Z" transform="translate(-167.851 -39.021)" fill="#fff"/>
          <path id="패스_6" data-name="패스 6" d="M374.287,42.679h.5a1.018,1.018,0,0,0,.769-.987V40.3a1.019,1.019,0,0,0-1.019-1.019H366.2l.046.008H366.2a.943.943,0,0,0-.239,0,1.018,1.018,0,0,0-.9,1.007V52.537a1.019,1.019,0,0,0,1.019,1.019h8.453a1.019,1.019,0,0,0,1.019-1.019V51.149a1.018,1.018,0,0,0-.769-.987h-6.328V42.679Z" transform="translate(-300.594 -39.216)" fill="#fff"/>
          <path id="패스_7" data-name="패스 7" d="M429.6,52.342l-.008-.024L425.4,40.1l-.015-.043a1.019,1.019,0,0,0-.841-.674.943.943,0,0,0-.239,0h-2.846a.943.943,0,0,0-.239,0,1.019,1.019,0,0,0-.728.446l-.168.488-4.005,11.661-.239.7a1.018,1.018,0,0,0,1.017.98h1.389a1.025,1.025,0,0,0,.222-.024h.027v-.007a1.017,1.017,0,0,0,.526-.327l.242-.7,3.4-9.891,3.436,10,.173.5a1.021,1.021,0,0,0,.845.447h1.257a1.029,1.029,0,0,0,1.039-1.019,1,1,0,0,0-.045-.3" transform="translate(-338.182 -39.285)" fill="#fff"/>
        </g>
      </g>
    </g>
    <g id="그룹_5" data-name="그룹 5" transform="translate(0 0)">
      <rect id="사각형_40" data-name="사각형 40" width="26" height="26" rx="5" fill="url(#linear-gradient)"/>
    </g>
    <g id="그룹_7" data-name="그룹 7" transform="translate(0 0)">
      <g id="그룹_6" data-name="그룹 6" clip-path="url(#clip-path)">
        <path id="패스_8" data-name="패스 8" d="M37.746,24.455a1.685,1.685,0,0,1-.327,2.3,1.685,1.685,0,0,1-2.091-1.015,1.685,1.685,0,0,1,.327-2.3,1.685,1.685,0,0,1,2.091,1.015" transform="translate(-25.82 -17.182)" fill="#fff"/>
        <path id="패스_9" data-name="패스 9" d="M25.292,38.993a1.467,1.467,0,0,1-.284,2,1.717,1.717,0,0,1-1.536-2.887,1.467,1.467,0,0,1,1.82.884" transform="translate(-16.901 -28.003)" fill="#fff"/>
        <path id="패스_10" data-name="패스 10" d="M56.3,24.455a1.685,1.685,0,0,0,.327,2.3,1.685,1.685,0,0,0,2.091-1.015,1.685,1.685,0,0,0-.327-2.3A1.685,1.685,0,0,0,56.3,24.455" transform="translate(-41.271 -17.182)" fill="#fff"/>
        <path id="패스_11" data-name="패스 11" d="M67.53,38.993a1.252,1.252,0,1,0,2.1,1.12,1.252,1.252,0,1,0-2.1-1.12" transform="translate(-49.575 -28.003)" fill="#fff"/>
        <path id="패스_12" data-name="패스 12" d="M39.226,43.5h0s-1.178-.2-2.189-2.965h0a1.849,1.849,0,0,0-3.55-.206h0v0a1.9,1.9,0,0,0-.053.185c-.183.6-.836,2.473-1.993,2.908-.037.011-.073.023-.109.037h0a1.849,1.849,0,1,0,1.611,3.31h0a7.457,7.457,0,0,1,4.72.072h0A1.849,1.849,0,1,0,39.226,43.5" transform="translate(-22.197 -28.803)" fill="#fff"/>
      </g>
    </g>
  </g>
</svg>
