<svg xmlns="http://www.w3.org/2000/svg" xmlns:xlink="http://www.w3.org/1999/xlink" width="312.04" height="71.422" viewBox="0 0 312.04 71.422">
  <defs>
    <clipPath id="clip-path">
      <rect id="사각형_71" data-name="사각형 71" width="312.04" height="71.422" fill="none"/>
    </clipPath>
  </defs>
  <g id="그룹_53" data-name="그룹 53" transform="translate(0 0)">
    <g id="그룹_52" data-name="그룹 52" transform="translate(0 0)" clip-path="url(#clip-path)">
      <path id="패스_72" data-name="패스 72" d="M479.473,60.383H450.6a2.4,2.4,0,0,0-2.4,2.4v3.277a2.4,2.4,0,0,0,1.815,2.329h10.93V92.431a2.4,2.4,0,0,0,2.328,1.815h3.277a2.4,2.4,0,0,0,2.4-2.4V68.393h11.111a2.4,2.4,0,0,0,1.815-2.329V62.788a2.4,2.4,0,0,0-2.4-2.4" transform="translate(-169.838 -22.881)" fill="#fff"/>
      <path id="패스_73" data-name="패스 73" d="M303.921,86.346H289.631v-23.3a2.414,2.414,0,0,0-2.459-2.367h-3.15a2.386,2.386,0,0,0-2.4,2.3c0,.022,0,.043,0,.065s0,.043,0,.065V91.925c0,.022,0,.043,0,.065s0,.043,0,.065a2.386,2.386,0,0,0,2.4,2.3h19.99a2.367,2.367,0,0,0,2.368-2.367V88.713a2.414,2.414,0,0,0-2.459-2.367" transform="translate(-106.715 -22.992)" fill="#fff"/>
      <path id="패스_74" data-name="패스 74" d="M130.019,63.252l0,0a2.416,2.416,0,0,0-2.455-2.287H98.782a2.427,2.427,0,0,0-2.443,2.1,2.125,2.125,0,0,0,0,.533V78.967a2.12,2.12,0,0,0,0,.778,2.433,2.433,0,0,0,2.423,1.978h23.246v4.733H98.67a2.367,2.367,0,0,0-2.331,1.96c-.011.059-.019.119-.025.18l-.013-.016V92.1l.023-.024a.152.152,0,0,0,0,.024,2.341,2.341,0,0,0,.017.274,2.367,2.367,0,0,0,2.351,2.093h28.954a2.37,2.37,0,0,0,2.374-2.367V76.08a2.367,2.367,0,0,0-2.368-2.366h-23.3V68.979h23.2a2.414,2.414,0,0,0,2.459-2.367V66.6l.014.012Zm-29.632,27.2h0" transform="translate(-36.492 -23.103)" fill="#fff"/>
      <path id="패스_75" data-name="패스 75" d="M250.654,60.383H226.622a2.436,2.436,0,0,0-2.456,2.348c0,.022,0,.043,0,.065s0,.043,0,.065V91.724c0,.022,0,.042,0,.063s0,.042,0,.063a2.416,2.416,0,0,0,2.456,2.3h24.031a2.414,2.414,0,0,0,2.459-2.367V62.8a2.436,2.436,0,0,0-2.459-2.412M245.1,86.144H232.177V68.393H245.1Z" transform="translate(-84.943 -22.881)" fill="#fff"/>
      <path id="패스_76" data-name="패스 76" d="M192.366,68.393a2.414,2.414,0,0,0,2.459-2.367V62.75a2.414,2.414,0,0,0-2.459-2.367H163.6a2.414,2.414,0,0,0-2.458,2.367V91.7a2.414,2.414,0,0,0,2.458,2.367h28.765a2.414,2.414,0,0,0,2.458-2.367V88.42a2.414,2.414,0,0,0-2.458-2.367H169.155V81.137h23.212a2.413,2.413,0,0,0,2.458-2.366V75.494a2.414,2.414,0,0,0-2.458-2.367H169.155V68.393Z" transform="translate(-61.063 -22.881)" fill="#fff"/>
      <path id="패스_77" data-name="패스 77" d="M363.06,68.658h1.181a2.4,2.4,0,0,0,1.814-2.329V63.052a2.4,2.4,0,0,0-2.4-2.4H343.982c.037,0,.073.012.109.018h-.109a2.227,2.227,0,0,0-.565,0,2.4,2.4,0,0,0-2.122,2.377v28.88a2.4,2.4,0,0,0,2.4,2.4h19.95a2.4,2.4,0,0,0,2.4-2.4V88.646a2.4,2.4,0,0,0-1.814-2.329H349.305V68.658Z" transform="translate(-129.329 -22.981)" fill="#fff"/>
      <path id="패스_78" data-name="패스 78" d="M424.226,91.334l-.019-.057L414.3,62.45l-.035-.1a2.4,2.4,0,0,0-1.984-1.592,2.231,2.231,0,0,0-.566,0H405a2.226,2.226,0,0,0-.565,0,2.406,2.406,0,0,0-1.717,1.052l-.4,1.151-9.453,27.521-.565,1.642a2.4,2.4,0,0,0,2.4,2.313h3.277a2.428,2.428,0,0,0,.524-.058h.063v-.017a2.4,2.4,0,0,0,1.242-.771l.571-1.661L408.4,68.588l8.11,23.609.407,1.187a2.409,2.409,0,0,0,1.995,1.055h2.966a2.429,2.429,0,0,0,2.451-2.4,2.352,2.352,0,0,0-.106-.7" transform="translate(-148.659 -23.017)" fill="#fff"/>
      <path id="패스_79" data-name="패스 79" d="M47.311,2.25V.85l-6.3,3.3-2.4.1-1.6,1-2.1-.5h-4l-1.9-.7-2.9-.7-2.456-2.1L20.712,0l-.3,1.85.15,2.349s1.5,2.2,1.05,2.35-.3,4.35-.3,4.35l-1.15,1.6.3.35-.85,1.1.55.65a3.154,3.154,0,0,0-1.05,2.6l-1.1.45-2.25.5-1.4.45-2.65,1.15L9.162,22l-2.15,2.35-1.9,2.7-1.7,2.9-1.2,3.4-2.2,4.2.5,7.9.5,2.4,1.3,3.2.6,1.9-.1,1.9.812,1.535v.165H2.013s-2.2,1.4-2,3.1c0,0-.1,5.2,2.3,6a93.4,93.4,0,0,0,30,3.5l4.6-.9v-.6s2.7.2,3.5-1c0,0,.9-.7-.7-2.2,0,0-1-3.1-2.6-3.4l-1-.8.1-3.2.8-2,.9-3.2v-1.3l.3-.8,1.9-2.3.552-3.6.948-3.1-.6-3.2,1.8-3.6v-9.7l2.7-2.2,1-1.8v-3.1l.8-2.2-.9-1.6-.3-1.1-1.1-.8-.3-2.9,1.8-3.8ZM36.662,67.473l-.091-.225h.34l.025.075Zm.983,0,.1-.225H37.9l-.05.225Zm2-.545v-.283l.048.253Z" transform="translate(0 0)" fill="#fff"/>
      <path id="패스_80" data-name="패스 80" d="M60.554,107.881l-3.721.642-.021-1.242,3.11-.052Z" transform="translate(-21.528 -40.633)" fill="#fff"/>
      <path id="패스_81" data-name="패스 81" d="M61.185,107.868l-4.347.621,1.843-1.242,3.11-.052Z" transform="translate(-21.538 -40.62)" fill="#fff"/>
    </g>
  </g>
</svg>
