<svg xmlns="http://www.w3.org/2000/svg" xmlns:xlink="http://www.w3.org/1999/xlink" width="55.848" height="70.791" viewBox="0 0 55.848 70.791">
  <defs>
    <linearGradient id="linear-gradient" x1="-0.006" y1="0.177" x2="1.042" y2="0.986" gradientUnits="objectBoundingBox">
      <stop offset="0" stop-color="#ff7494"/>
      <stop offset="1" stop-color="#d600ff"/>
    </linearGradient>
    <clipPath id="clip-path">
      <rect id="사각형_106" data-name="사각형 106" width="38.009" height="32.238" fill="url(#linear-gradient)"/>
    </clipPath>
    <clipPath id="clip-path-2">
      <rect id="사각형_106-2" data-name="사각형 106" width="18.043" height="15.303" fill="#ff7494"/>
    </clipPath>
  </defs>
  <g id="그룹_259" data-name="그룹 259" transform="translate(-111.93 -58.92)">
    <g id="그룹_213" data-name="그룹 213" transform="matrix(0.934, 0.358, -0.358, 0.934, 123.483, 85.993)" clip-path="url(#clip-path)">
      <path id="패스_100" data-name="패스 100" d="M43.957,3.024c1.3,2.438.908,5.181-.87,6.127s-4.27-.264-5.567-2.7-.908-5.181.87-6.127,4.27.264,5.567,2.7" transform="translate(-28.272 0)" fill="url(#linear-gradient)"/>
      <path id="패스_101" data-name="패스 101" d="M6.271,47.224c1.129,2.123.79,4.511-.757,5.334S1.8,52.328.667,50.205s-.79-4.511.757-5.334,3.718.23,4.847,2.353" transform="translate(0 -34.301)" fill="url(#linear-gradient)"/>
      <path id="패스_102" data-name="패스 102" d="M101.188,3.024c-1.3,2.438-.908,5.181.87,6.127s4.27-.264,5.567-2.7.908-5.181-.87-6.127-4.27.264-5.567,2.7" transform="translate(-77.248 0)" fill="url(#linear-gradient)"/>
      <path id="패스_103" data-name="패스 103" d="M135.311,47.224c-1.129,2.123-.79,4.511.757,5.334s3.718-.23,4.847-2.353.79-4.511-.757-5.334-3.718.23-4.847,2.353" transform="translate(-103.573 -34.301)" fill="url(#linear-gradient)"/>
      <path id="패스_104" data-name="패스 104" d="M46.058,59.632h0s-3.137-.538-5.829-7.894h0a4.923,4.923,0,0,0-9.454-.548h0l0,.013a4.944,4.944,0,0,0-.141.492c-.489,1.61-2.225,6.583-5.307,7.743-.1.03-.2.062-.291.1l-.009,0h0a4.923,4.923,0,1,0,4.291,8.813h0s6.944-2.313,12.567.192h0a4.923,4.923,0,1,0,4.178-8.911" transform="translate(-16.787 -36.836)" fill="url(#linear-gradient)"/>
    </g>
    <g id="그룹_215" data-name="그룹 215" transform="matrix(0.799, -0.602, 0.602, 0.799, 144.158, 69.778)">
      <g id="그룹_213-2" data-name="그룹 213" clip-path="url(#clip-path-2)">
        <path id="패스_100-2" data-name="패스 100" d="M40.173,1.436c.616,1.157.431,2.46-.413,2.909s-2.027-.126-2.643-1.283S36.686.6,37.53.153s2.027.126,2.643,1.283" transform="translate(-32.727 0)" fill="#ff7494"/>
        <path id="패스_101-2" data-name="패스 101" d="M2.977,45.841a1.855,1.855,0,0,1-.36,2.532,1.855,1.855,0,0,1-2.3-1.117,1.855,1.855,0,0,1,.36-2.532,1.855,1.855,0,0,1,2.3,1.117" transform="translate(0 -39.706)" fill="#ff7494"/>
        <path id="패스_102-2" data-name="패스 102" d="M100.786,1.436c-.616,1.157-.431,2.46.413,2.909s2.027-.126,2.643-1.283.431-2.46-.413-2.909-2.027.126-2.643,1.283" transform="translate(-89.422 0)" fill="#ff7494"/>
        <path id="패스_103-2" data-name="패스 103" d="M134.96,45.841a1.583,1.583,0,1,0,2.66,1.415,1.583,1.583,0,1,0-2.66-1.415" transform="translate(-119.894 -39.706)" fill="#ff7494"/>
        <path id="패스_104-2" data-name="패스 104" d="M33.328,53.462h0s-1.489-.255-2.767-3.747h0a2.337,2.337,0,0,0-4.488-.26h0l0,.006a2.347,2.347,0,0,0-.067.233c-.232.764-1.056,3.125-2.519,3.676-.047.014-.093.029-.138.046h0A2.337,2.337,0,1,0,25.378,57.6h0s3.3-1.1,5.966.091h0a2.337,2.337,0,1,0,1.983-4.23" transform="translate(-19.432 -42.64)" fill="#ff7494"/>
      </g>
    </g>
  </g>
</svg>
