<svg xmlns="http://www.w3.org/2000/svg" width="20.857" height="17.69" viewBox="0 0 20.857 17.69">
  <g id="그룹_55" data-name="그룹 55" transform="translate(-1048.143 -1149.31)">
    <path id="패스_22" data-name="패스 22" d="M110.351,72.464c.712,1.338.5,2.843-.477,3.362s-2.343-.145-3.055-1.483-.5-2.843.477-3.362,2.343.145,3.055,1.483" transform="translate(946.399 1078.506)" fill="#fff"/>
    <path id="패스_23" data-name="패스 23" d="M73.086,116.84c.62,1.165.434,2.475-.416,2.927s-2.04-.126-2.66-1.291-.434-2.475.416-2.927,2.04.126,2.66,1.291" transform="translate(978.498 1039.562)" fill="#fff"/>
    <path id="패스_24" data-name="패스 24" d="M170.488,72.464c-.712,1.338-.5,2.843.477,3.362s2.343-.145,3.055-1.483.5-2.843-.477-3.362-2.343.145-3.055,1.483" transform="translate(890.792 1078.506)" fill="#fff"/>
    <path id="패스_25" data-name="패스 25" d="M204.655,116.84c-.62,1.165-.434,2.475.416,2.927s2.04-.126,2.66-1.291.434-2.475-.416-2.927-2.04.126-2.66,1.291" transform="translate(860.904 1039.562)" fill="#fff"/>
    <path id="패스_26" data-name="패스 26" d="M104.767,125.136h0s-1.722-.3-3.2-4.332h0a2.7,2.7,0,0,0-5.188-.3h0l0,.007a2.709,2.709,0,0,0-.077.27c-.268.883-1.221,3.613-2.912,4.249-.054.016-.107.034-.16.054l-.005,0h0a2.7,2.7,0,1,0,2.354,4.836h0s3.81-1.269,6.9.105h0a2.7,2.7,0,1,0,2.292-4.89" transform="translate(959.438 1036.684)" fill="#fff"/>
  </g>
</svg>
