<svg xmlns="http://www.w3.org/2000/svg" xmlns:xlink="http://www.w3.org/1999/xlink" width="61.732" height="14.873" viewBox="0 0 61.732 14.873">
  <defs>
    <clipPath id="clip-path">
      <rect id="사각형_38" data-name="사각형 38" width="61.732" height="14.873" fill="none"/>
    </clipPath>
  </defs>
  <g id="그룹_3" data-name="그룹 3" transform="translate(-30)">
    <g id="그룹_2" data-name="그룹 2" transform="translate(30)" clip-path="url(#clip-path)">
      <g id="그룹_9" data-name="그룹 9" transform="translate(0.595 3.326)">
        <path id="패스_1" data-name="패스 1" d="M479.548,39.021h-7a.583.583,0,0,0-.583.583V40.4a.583.583,0,0,0,.44.565h2.649v5.826a.583.583,0,0,0,.564.44h.794a.583.583,0,0,0,.583-.583V40.963h2.693a.583.583,0,0,0,.44-.565V39.6a.583.583,0,0,0-.583-.583" transform="translate(-418.993 -39.021)" fill="#fff"/>
        <path id="패스_2" data-name="패스 2" d="M310.793,45.536H307.33V39.888a.585.585,0,0,0-.6-.574h-.764a.578.578,0,0,0-.582.558c0,.005,0,.01,0,.016s0,.01,0,.016v6.985c0,.005,0,.01,0,.016s0,.01,0,.016a.578.578,0,0,0,.582.558h4.845a.574.574,0,0,0,.574-.574V46.11a.585.585,0,0,0-.6-.574" transform="translate(-277.49 -39.27)" fill="#fff"/>
        <path id="패스_3" data-name="패스 3" d="M128.245,40.16h0a.586.586,0,0,0-.6-.554h-6.975a.588.588,0,0,0-.592.509.518.518,0,0,0,0,.129V43.97a.515.515,0,0,0,0,.189.59.59,0,0,0,.587.479H126.3v1.147h-5.657a.574.574,0,0,0-.565.475c0,.014,0,.029-.006.044l0,0v.853l.005-.006s0,0,0,.006a.577.577,0,0,0,.574.574h7.018a.575.575,0,0,0,.576-.574V43.27a.574.574,0,0,0-.574-.574h-5.648V41.549h5.623a.585.585,0,0,0,.6-.574v0l0,0Zm-7.182,6.593h0" transform="translate(-120.072 -39.519)" fill="#fff"/>
        <path id="패스_4" data-name="패스 4" d="M254.354,39.021h-5.825a.59.59,0,0,0-.6.569c0,.005,0,.01,0,.016s0,.01,0,.016v7c0,.005,0,.01,0,.015s0,.01,0,.015a.585.585,0,0,0,.6.558h5.825a.585.585,0,0,0,.6-.574V39.606a.591.591,0,0,0-.6-.585m-1.345,6.244h-3.133v-4.3h3.133Z" transform="translate(-228.685 -39.021)" fill="#fff"/>
        <path id="패스_5" data-name="패스 5" d="M192.483,40.963a.585.585,0,0,0,.6-.574v-.794a.585.585,0,0,0-.6-.574h-6.972a.585.585,0,0,0-.6.574v7.016a.585.585,0,0,0,.6.574h6.972a.585.585,0,0,0,.6-.574v-.794a.585.585,0,0,0-.6-.574h-5.626V44.052h5.626a.585.585,0,0,0,.6-.574v-.794a.585.585,0,0,0-.6-.574h-5.626V40.963Z" transform="translate(-175.154 -39.021)" fill="#fff"/>
        <path id="패스_6" data-name="패스 6" d="M370.34,41.227h.286a.583.583,0,0,0,.44-.565v-.794a.583.583,0,0,0-.583-.583h-4.767l.026,0h-.026a.539.539,0,0,0-.137,0,.583.583,0,0,0-.514.576v7a.583.583,0,0,0,.583.583h4.836a.583.583,0,0,0,.583-.583v-.794a.583.583,0,0,0-.44-.565h-3.62v-4.28Z" transform="translate(-328.184 -39.245)" fill="#fff"/>
        <path id="패스_7" data-name="패스 7" d="M423.814,46.795l0-.014-2.4-6.987-.008-.024a.583.583,0,0,0-.481-.386.539.539,0,0,0-.137,0h-1.628a.54.54,0,0,0-.137,0,.583.583,0,0,0-.416.255l-.1.279-2.291,6.671-.137.4a.583.583,0,0,0,.582.561h.794a.586.586,0,0,0,.127-.014h.015v0a.582.582,0,0,0,.3-.187l.138-.4,1.944-5.658L421.944,47l.1.288a.584.584,0,0,0,.484.256h.719a.589.589,0,0,0,.594-.583.57.57,0,0,0-.026-.17" transform="translate(-371.517 -39.325)" fill="#fff"/>
      </g>
    </g>
  </g>
</svg>
