<svg xmlns="http://www.w3.org/2000/svg" xmlns:xlink="http://www.w3.org/1999/xlink" width="26.005" height="22.164" viewBox="0 0 26.005 22.164">
  <defs>
    <clipPath id="clip-path">
      <rect id="사각형_77" data-name="사각형 77" width="26.005" height="22.164" fill="#fff"/>
    </clipPath>
  </defs>
  <g id="프로필" transform="translate(-2.076 1)">
    <g id="그룹_57" data-name="그룹 57" transform="translate(2.076 -1)">
      <g id="그룹_56" data-name="그룹 56" clip-path="url(#clip-path)">
        <path id="패스_82" data-name="패스 82" d="M2.966,22.164V16.876l-1.78-1.531L.527,14.093V11.935L0,10.4.593,9.291l.2-.765.725-.557.2-2.018L.527,3.306,0,1.566V.592l4.153,2.3,1.582.07,1.055.7,1.384-.348h2.637l1.252-.487,1.912-.487L15.595.87,17.535,0l.2,1.288-.1,1.636s-.989,1.531-.692,1.635.2,3.027.2,3.027L17.9,8.7l-.2.243.56.765-.362.453a2.244,2.244,0,0,1,.692,1.809l.726.313,1.483.348.923.313,1.747.8,1.681,1.566,1.417,1.635,1.252,1.879,1.121,2.018.442,1.321Z" transform="translate(0 0)" fill="#fff"/>
      </g>
    </g>
  </g>
</svg>
