<svg xmlns="http://www.w3.org/2000/svg" width="18.549" height="15.732" viewBox="0 0 18.549 15.732">
  <g id="그룹_278" data-name="그룹 278" transform="translate(0 0)">
    <path id="패스_22" data-name="패스 22" d="M109.913,72.28c.633,1.19.443,2.529-.425,2.99s-2.084-.129-2.717-1.319-.443-2.529.425-2.99,2.084.129,2.717,1.319" transform="translate(-102.259 -70.804)" fill="#fff"/>
    <path id="패스_23" data-name="패스 23" d="M72.705,116.68a1.627,1.627,0,1,1-2.365-1.148,1.907,1.907,0,0,1,2.365,1.148" transform="translate(-69.645 -110.373)" fill="#fff"/>
    <path id="패스_24" data-name="패스 24" d="M170.441,72.28c-.633,1.19-.443,2.529.425,2.99s2.084-.129,2.717-1.319.443-2.529-.425-2.99-2.084.129-2.717,1.319" transform="translate(-158.758 -70.804)" fill="#fff"/>
    <path id="패스_25" data-name="패스 25" d="M204.614,116.68a1.627,1.627,0,1,0,2.365-1.148,1.907,1.907,0,0,0-2.365,1.148" transform="translate(-189.126 -110.373)" fill="#fff"/>
    <path id="패스_26" data-name="패스 26" d="M103.295,124.422h0s-1.531-.262-2.844-3.852h0a2.4,2.4,0,0,0-4.613-.268h0l0,.007a2.412,2.412,0,0,0-.069.24c-.239.785-1.086,3.213-2.59,3.779-.048.014-.1.03-.142.048h0a2.4,2.4,0,1,0,2.094,4.3h0s3.389-1.129,6.133.094h0a2.4,2.4,0,1,0,2.039-4.349" transform="translate(-89.01 -113.297)" fill="#fff"/>
  </g>
</svg>
