<svg xmlns="http://www.w3.org/2000/svg" width="60" height="54" viewBox="0 0 60 54">
  <g id="그룹_359" data-name="그룹 359" transform="translate(-10728.199 -11810)" opacity="0.8">
    <g id="합치기_8" data-name="합치기 8" transform="translate(10728.199 11810)" fill="none">
      <path d="M0,54V9.495H14.177a18.432,18.432,0,0,1,32.241,0H60V54Z" stroke="none"/>
      <path d="M 57 51 L 57 12.49463367462158 L 44.6507682800293 12.49463367462158 L 43.7939338684082 10.94955539703369 C 42.48104476928711 8.582088470458984 40.55908966064453 6.592233180999756 38.23583221435547 5.195122241973877 C 35.84781265258789 3.759066581726074 33.10269927978516 3 30.29726600646973 3 C 27.49181175231934 3 24.74663352966309 3.759066581726074 22.35851097106934 5.195144653320312 C 20.03516578674316 6.592278003692627 18.11311149597168 8.582133293151855 16.80015563964844 10.94961071014404 L 15.94331073760986 12.49463367462158 L 3 12.49463367462158 L 3 51 L 57 51 M 60 54 L 0 54 L 0 9.494633674621582 L 14.17660045623779 9.494633674621582 C 17.31645584106445 3.832966566085815 23.35890007019043 0 30.29726600646973 0 C 37.23563385009766 0 43.2778205871582 3.832966566085815 46.41752243041992 9.494633674621582 L 60 9.494633674621582 L 60 54 Z" stroke="none" fill="#fff"/>
    </g>
    <path id="빼기_6" data-name="빼기 6" d="M14.5,29A14.5,14.5,0,0,1,4.247,4.247,14.5,14.5,0,0,1,24.753,24.753,14.4,14.4,0,0,1,14.5,29ZM7.436,13.385v2.231h6.32v6.32h2.231v-6.32h6.32V13.385h-6.32V7.064H13.756v6.32Z" transform="translate(10743.199 11825)" fill="#fff"/>
    <circle id="타원_44" data-name="타원 44" cx="2.5" cy="2.5" r="2.5" transform="translate(10777.199 11825)" fill="#fff"/>
  </g>
</svg>
