<svg xmlns="http://www.w3.org/2000/svg" width="24.998" height="24.998" viewBox="0 0 24.998 24.998">
  <path id="빼기_7" data-name="빼기 7" d="M-9718.5-12158a12.423,12.423,0,0,1-8.84-3.658,12.429,12.429,0,0,1-3.659-8.842,12.423,12.423,0,0,1,3.659-8.838,12.42,12.42,0,0,1,8.84-3.66,12.416,12.416,0,0,1,8.838,3.66,12.423,12.423,0,0,1,3.661,8.838,12.426,12.426,0,0,1-3.661,8.842A12.417,12.417,0,0,1-9718.5-12158Zm0-11.727h0l4.5,4.506.77-.773-4.508-4.506,4.508-4.506-.77-.768-4.506,4.506-4.508-4.506-.771.768,4.508,4.506-4.508,4.506.771.773,4.506-4.506Z" transform="translate(9730.998 12183)" fill="#fff" opacity="0.8"/>
</svg>
