<svg xmlns="http://www.w3.org/2000/svg" width="17.5" height="20.5" viewBox="0 0 17.5 20.5">
  <g id="검색" transform="translate(-1497 -90)">
    <g id="그룹_277" data-name="그룹 277" transform="translate(1497 90)">
      <g id="그룹_276" data-name="그룹 276">
        <path id="타원_29" data-name="타원 29" d="M8,2a6,6,0,1,0,6,6A6.007,6.007,0,0,0,8,2M8,0A8,8,0,1,1,0,8,8,8,0,0,1,8,0Z" fill="#fff"/>
        <path id="선_15" data-name="선 15" d="M4,6a1,1,0,0,1-.782-.375l-4-5A1,1,0,0,1-.625-.781,1,1,0,0,1,.781-.625l4,5A1,1,0,0,1,4,6Z" transform="translate(12.5 14.5)" fill="#fff"/>
      </g>
    </g>
  </g>
</svg>
