<svg xmlns="http://www.w3.org/2000/svg" width="40" height="40" viewBox="0 0 40 40">
  <g id="그룹_346" data-name="그룹 346" transform="translate(0.085 0.063)">
    <g id="사각형_178" data-name="사각형 178" transform="translate(-0.085 -0.063)" fill="none" stroke="#707070" stroke-width="1" opacity="0">
      <rect width="40" height="40" stroke="none"/>
      <rect x="0.5" y="0.5" width="39" height="39" fill="none"/>
    </g>
    <g id="그룹_343" data-name="그룹 343" transform="translate(11.176 10.67)">
      <path id="패스_115" data-name="패스 115" d="M1805.722,13622.748h-18.564v-18.455h1.167v17.289h17.4Z" transform="translate(-1787.158 -13604.293)" fill="#fff"/>
      <path id="패스_118" data-name="패스 118" d="M2577.935,15628.866l7.347,7.347-7.347,7.347v-4.828c-.1,0-.218-.009-.347-.009a7.513,7.513,0,0,0-6.656,3.728l-.06.1-.249.185-.208,0c-.234,0-.63-.112-.648-.87-.051-2.108,1.343-7.972,6.284-8.211l.6-.029v.031h.025l1.259,0Zm5.7,7.347-4.531-4.53v3.142l-2.425,0c-.219,0-.409,0-.569-.014v.012a4.447,4.447,0,0,0-3.381,1.79,9.007,9.007,0,0,0-1.6,3.642,8.906,8.906,0,0,1,6.458-2.7,7.174,7.174,0,0,1,1.023.064l.49.08v3.042Z" transform="translate(-2566.896 -15628.706)" fill="#fff"/>
    </g>
  </g>
</svg>
