<svg xmlns="http://www.w3.org/2000/svg" width="40" height="40" viewBox="0 0 40 40">
  <g id="그룹_345" data-name="그룹 345" transform="translate(0.085 -0.149)">
    <g id="사각형_179" data-name="사각형 179" transform="translate(-0.085 0.149)" fill="none" stroke="#707070" stroke-width="1" opacity="0">
      <rect width="40" height="40" stroke="none"/>
      <rect x="0.5" y="0.5" width="39" height="39" fill="none"/>
    </g>
    <g id="그룹_344" data-name="그룹 344" transform="translate(11.046 7.603)">
      <path id="패스_118" data-name="패스 118" d="M1804.851,14007.74h-17.693v-1.365h17.693Z" transform="translate(-1786.313 -14003.379)" fill="#fff"/>
      <path id="패스_119" data-name="패스 119" d="M1864.061,13990.81h-19.619v-1.366h19.619Z" transform="translate(-1844.441 -13988.761)" fill="#fff"/>
      <path id="패스_120" data-name="패스 120" d="M1827.674,14029.139h-17.693v-20.7h1.2v19.329h15.268v-19.329h1.221Z" transform="translate(-1809.136 -14005.165)" fill="#fff"/>
      <path id="패스_121" data-name="패스 121" d="M1834.435,14034.252h-1.366V14022.7h1.366Z" transform="translate(-1829.07 -14014.788)" fill="#fff"/>
      <path id="패스_122" data-name="패스 122" d="M1834.435,14034.252h-1.366V14022.7h1.366Z" transform="translate(-1824.201 -14014.788)" fill="#fff"/>
      <path id="패스_123" data-name="패스 123" d="M1834.435,14034.252h-1.366V14022.7h1.366Z" transform="translate(-1819.371 -14014.788)" fill="#fff"/>
      <path id="패스_119-2" data-name="패스 119" d="M1848.933,13990.81h-4.492v-1.366h4.492Z" transform="translate(-1836.95 -13989.443)" fill="#fff"/>
    </g>
  </g>
</svg>
